# AST/ASF file generated using VICON BodyLanguage
# -----------------------------------------------
:version 1.10
:name VICON
:units
  mass 1.0
  length 0.45
  angle deg
:documentation
   .ast/.asf automatically generated from VICON data using
   VICON BodyBuilder and BodyLanguage model FoxedUp or BRILLIANT.MOD
:root
   order TX TY TZ RX RY RZ
   axis XYZ
   position 0 0 0  
   orientation 0 0 0 
:bonedata
  begin
     id 1 
     name lhipjoint
     direction 0.547975 -0.797114 0.253638 
     length 2.36201 
     axis 0 0 0  XYZ
  end
  begin
     id 2 
     name lfemur
     direction 0.34202 -0.939693 0  
     length 7.69075  
     axis 0 0 20  XYZ
    dof rx ry rz
    limits (-160.0 20.0)
           (-70.0 70.0)
           (-60.0 70.0)
  end
  begin
     id 3 
     name ltibia
     direction 0.34202 -0.939693 0   
     length 7.91399   
     axis 0 0 20   XYZ
    dof rx
    limits (-10.0 170.0)
  end
  begin
     id 4 
     name lfoot
     direction 0.0705293 -0.193778 0.978507   
     length 2.13618   
     axis -90 7.62852e-016 20   XYZ
    dof rx rz
    limits (-45.0 90.0)
           (-70.0 20.0)
  end
  begin
     id 5 
     name ltoes
     direction 1.53592e-011 -4.21925e-011 1   
     length 1.07518   
     axis -90 7.62852e-016 20   XYZ
    dof rx
    limits (-90.0 20.0)
  end
  begin
     id 6 
     name rhipjoint
     direction -0.57 -0.782963 0.249136   
     length 2.4047  
     axis 0 0 0  XYZ 
  end
  begin
     id 7 
     name rfemur
     direction -0.34202 -0.939693 0   
     length 7.51486   
     axis 0 0 -20   XYZ
    dof rx ry rz
    limits (-160.0 20.0)
           (-70.0 70.0)
           (-70.0 60.0)
  end
  begin
     id 8 
     name rtibia
     direction -0.34202 -0.939693 0   
     length 8.08317   
     axis 0 0 -20   XYZ
    dof rx
    limits (-10.0 170.0)
 end
 begin
     id 9 
     name rfoot
     direction -0.104954 -0.281256 0.953876   
     length 2.30343  
     axis -90 -7.62852e-016 -20   XYZ
    dof rx rz
    limits (-45.0 90.0)
           (-20.0 70.0)
  end
  begin
     id 10 
     name rtoes
     direction -1.53556e-011 -4.21922e-011 1   
     length 1.14803   
     axis -90 -7.62852e-016 -20   XYZ
    dof rx
    limits (-90.0 20.0)
  end
  begin
     id 11 
     name lowerback
     direction -0.0152855 0.99353 -0.11254   
     length 2.05311   
     axis 0 0 0   XYZ
    dof rx ry rz
    limits (-20.0 45.0)
           (-30.0 30.0)
           (-30.0 30.0)
  end
  begin
     id 12 
     name upperback
     direction -0.00157509 0.999443 -0.033332   
     length 2.06353   
     axis 0 0 0   XYZ
    dof rx ry rz
    limits (-20.0 45.0)
           (-30.0 30.0)
           (-30.0 30.0)
  end
  begin
     id 13 
     name thorax
     direction 0.00577788 0.999804 0.0189484   
     length 2.08472   
     axis 0 0 0   XYZ
    dof rx ry rz
    limits (-20.0 45.0)
           (-30.0 30.0)
           (-30.0 30.0)
  end
  begin
     id 14 
     name lowerneck
     direction -1.09301e-005 0.994719 0.10264   
     length 1.76249   
     axis 0 0 0   XYZ
    dof rx ry rz
    limits (-20.0 45.0)
           (-30.0 30.0)
           (-30.0 30.0)
  end
  begin
     id 15 
     name upperneck
     direction 0.0495018 0.988526 -0.142706   
     length 1.77897   
     axis 0 0 0   XYZ
    dof rx ry rz
    limits (-20.0 45.0)
           (-30.0 30.0)
           (-30.0 30.0)
  end
  begin
     id 16
     name head
     direction 0.0142736 0.998114 -0.0597101  
     length 1.78934  
     axis 0 0 0   XYZ
    dof rx ry rz
    limits (-20.0 45.0)
           (-30.0 30.0)
           (-30.0 30.0)
  end
  begin
     id 17 
     name lclavicle
     direction 0.918111 0.396107 -0.0130883  
     length 3.37276  
     axis 0 0 0   XYZ
    dof ry rz
    limits (-20.0 10.0)
           (0.0 20.0)
  end
  begin
     id 18 
     name lhumerus
     direction 1 -4.48975e-011 -3.26108e-027   
     length 5.34298   
     axis 180 -30 -90   XYZ
    dof rx ry rz
    limits (-60.0 90.0)
           (-90.0 90.0)
           (-90.0 90.0)
  end
  begin
     id 19
     name lradius
     direction 1 -4.48964e-011 -8.84413e-028   
     length 3.67262   
     axis 180 -30 -90   XYZ
    dof rx
    limits (-10.0 170.0)
  end
  begin
     id 20
     name lwrist
     direction 1 -4.48991e-011 -1.24264e-027   
     length 1.83631   
     axis -2.17013e-015 90 90   XYZ
    dof ry
    limits (-180.0 0.0)
 end
  begin
     id 21 
     name lhand
     direction 1 -4.48855e-011 -2.48528e-027   
     length 0.599298   
     axis 1.58582e-015 90 90   XYZ
    dof rx rz
    limits (-90.0 90.0)
           (-45.0 45.0)
  end
  begin
     id 22 
     name lfingers
     direction 1 -4.48811e-011 -4.97056e-027   
     length 0.48317   
     axis 3.17164e-015 90 90   XYZ
    dof rx
    limits (0.0 90.0)
  end
  begin
     id 23
     name lthumb
     direction 0.707107 -6.34882e-011 0.707107   
     length 0.693738   
     axis -90 45 2.85299e-015   XYZ
    dof rx rz
    limits (-45.0 45.0)
           (-45.0 45.0)
  end
  begin
     id 24 
     name rclavicle
     direction -0.920511 0.384752 -0.0680135   
     length 3.43787  
     axis 0 0 0   XYZ 
    dof ry rz
    limits (-10.0 20.0)
           (-20.0 0.0)
  end
  begin
     id 25 
     name rhumerus
     direction -0.999976 -0.00330524 0.00603274  
     length 5.5498   
     axis 180 30 90   XYZ
    dof rx ry rz
    limits (-90.0 60.0)
           (-90.0 90.0)
           (-90.0 90.0)
  end
  begin
     id 26 
     name rradius
     direction -1 -4.48967e-011 8.62438e-027   
     length 3.69401   
     axis 180 30 90   XYZ
    dof rx
    limits (-10.0 170.0)
  end
  begin
     id 27 
     name rwrist
     direction -1 -4.4897e-011 9.54866e-027   
     length 1.84701   
     axis -7.69462e-015 -90 -90   XYZ
    dof ry
    limits (-180.0 0.0)
  end
  begin
     id 28
     name rhand
     direction -1 -4.48982e-011 1.90973e-026   
     length 0.638113   
     axis -1.21857e-014 -90 -90   XYZ
    dof rx rz
    limits (-90.0 90.0)
           (-45.0 45.0)
  end
  begin
     id 29
     name rfingers
     direction -1 -4.48936e-011 3.81946e-026   
     length 0.514463   
     axis -2.43714e-014 -90 -90   XYZ
    dof rx
    limits (0.0 90.0)
  end
  begin
     id 30
     name rthumb
     direction -0.707107 -6.34942e-011 0.707107   
     length 0.738669   
     axis -90 -45 -2.85299e-015   XYZ
    dof rx rz
    limits (-45.0 45.0)
           (-45.0 45.0)
  end
:hierarchy
  begin
    root lhipjoint rhipjoint lowerback
    lhipjoint lfemur
    lfemur ltibia
    ltibia lfoot
    lfoot ltoes
    rhipjoint rfemur
    rfemur rtibia
    rtibia rfoot
    rfoot rtoes
    lowerback upperback
    upperback thorax
    thorax lowerneck lclavicle rclavicle
    lowerneck upperneck
    upperneck head
    lclavicle lhumerus
    lhumerus lradius
    lradius lwrist
    lwrist lhand lthumb
    lhand lfingers
    rclavicle rhumerus
    rhumerus rradius
    rradius rwrist
    rwrist rhand rthumb
    rhand rfingers
  end

#!OML:ASF F:\twosubjects\two\Thursday\Session 1\Rory.ASF
:FULLY-SPECIFIED
:DEGREES
50
root 20.6126 18.7996 7.35582 3.03023 -22.9627 1.52693
lowerback -0.666226 -0.170461 -3.87762
upperback -0.333964 -0.225874 -4.6515
thorax 0.0261115 -0.122894 -2.60816
lowerneck -2.59508 -12.6608 -12.1289
upperneck 13.1007 -19.1564 17.214
head 7.29624 -9.04197 5.76335
rclavicle -4.60683e-014 6.36111e-015
rhumerus -34.9807 -5.36041 -91.2107
rradius 37.9916
rwrist 11.6613
rhand -23.4124 22.021
rfingers 7.12502
rthumb 3.04481 -7.93701
lclavicle -4.60683e-014 6.36111e-015
lhumerus -50.4344 30.5092 49.9097
lradius 15.9574
lwrist -39.0879
lhand -8.33848 31.2414
lfingers 7.12502
lthumb 17.5831 60.4663
rfemur 7.35077 11.6917 18.3253
rtibia 29.9426
rfoot 16.7255 9.78859
rtoes 3.82485
lfemur -20.7935 4.58703 -23.1675
ltibia 19.0067
lfoot -3.87384 0.926351
ltoes 5.86888
51
root 20.5984 18.8148 7.5244 2.9806 -23.158 1.87472
lowerback -0.81507 -0.218919 -4.25199
upperback -0.367068 -0.280944 -4.75311
thorax 0.0757215 -0.151263 -2.50515
lowerneck -2.6784 -12.5433 -12.3061
upperneck 13.0443 -18.9879 17.352
head 7.29848 -8.95961 5.85356
rclavicle -3.0911e-014 -7.95139e-015
rhumerus -35.4459 -6.32769 -90.8664
rradius 36.0354
rwrist 12.7878
rhand -23.5504 21.8544
rfingers 7.12502
rthumb 2.91154 -8.10546
lclavicle -3.0911e-014 -7.95139e-015
lhumerus -50.4292 31.024 49.5158
lradius 15.7413
lwrist -39.2495
lhand -8.81244 31.282
lfingers 7.12502
lthumb 17.127 60.5471
rfemur 5.64201 12.4244 17.8392
rtibia 32.6687
rfoot 19.2419 9.625
rtoes 1.61875
lfemur -20.2345 5.0144 -23.7326
ltibia 18.8562
lfoot -4.31202 0.585074
ltoes 6.04956
52
root 20.5927 18.8217 7.68903 3.1208 -23.3051 2.12249
lowerback -1.03176 -0.351756 -4.46853
upperback -0.399973 -0.443071 -4.85839
thorax 0.162119 -0.23371 -2.49628
lowerneck -3.37432 -12.4696 -12.3084
upperneck 13.3811 -18.8767 17.3266
head 7.51045 -8.85716 5.81453
rclavicle 3.95085e-014 0
rhumerus -35.6256 -7.93028 -90.3463
rradius 33.825
rwrist 14.8429
rhand -23.4265 21.6694
rfingers 7.12502
rthumb 3.0312 -8.28876
lclavicle 3.95085e-014 0
lhumerus -50.2511 31.3308 49.5192
lradius 15.7757
lwrist -38.9031
lhand -6.3938 32.6581
lfingers 7.12502
lthumb 19.4538 61.705
rfemur 3.71792 12.8872 17.2994
rtibia 35.3478
rfoot 21.6846 10.3654
rtoes -2.11677
lfemur -19.8569 5.57627 -24.2935
ltibia 18.6922
lfoot -4.7006 0.0557589
ltoes 6.73766
53
root 20.5896 18.8337 7.85185 3.0128 -23.2811 2.54175
lowerback -1.02304 -0.527239 -4.84413
upperback -0.383759 -0.674259 -4.91929
thorax 0.174733 -0.349881 -2.35268
lowerneck -3.96903 -12.3566 -12.5064
upperneck 13.5847 -18.6874 17.3625
head 7.67559 -8.73253 5.84501
rclavicle 1.10325e-014 2.38542e-014
rhumerus -35.8764 -9.49235 -89.538
rradius 31.5585
rwrist 16.9503
rhand -23.2447 21.4333
rfingers 7.12502
rthumb 3.20677 -8.52233
lclavicle 1.10325e-014 2.38542e-014
lhumerus -50.0938 31.9222 49.4696
lradius 15.635
lwrist -39.1104
lhand -10.6704 32.0802
lfingers 7.12502
lthumb 15.338 61.4914
rfemur 1.90929 12.9054 16.5468
rtibia 38.0085
rfoot 23.9287 11.6164
rtoes -2.11475
lfemur -19.2627 6.18684 -25.0335
ltibia 18.4443
lfoot -4.99833 -0.713814
ltoes 7.23384
54
root 20.5814 18.8493 8.01003 2.78247 -23.2017 2.85429
lowerback -0.834001 -0.539252 -5.17694
upperback -0.366753 -0.702911 -4.91382
thorax 0.0897392 -0.363061 -2.15995
lowerneck -4.0061 -12.3132 -12.894
upperneck 13.5207 -18.6069 17.5277
head 7.7044 -8.70184 5.96738
rclavicle -7.42958e-014 7.95139e-015
rhumerus -36.2686 -11.1058 -88.3989
rradius 29.2357
rwrist 18.7239
rhand -22.8134 21.1356
rfingers 7.12502
rthumb 3.6233 -8.81337
lclavicle -7.42958e-014 7.95139e-015
lhumerus -49.8156 32.331 49.5308
lradius 15.4147
lwrist -40.0772
lhand -9.6506 31.8066
lfingers 7.12502
lthumb 16.3201 61.1399
rfemur 0.276861 12.8184 15.9721
rtibia 40.6365
rfoot 25.7616 12.7617
rtoes -2.46859
lfemur -18.4024 6.41588 -25.5273
ltibia 18.039
lfoot -5.20122 -1.19072
ltoes 8.26697
55
root 20.5739 18.8555 8.1757 2.33191 -23.2194 3.5525
lowerback -0.622293 -0.478479 -5.80834
upperback -0.347558 -0.639254 -5.12796
thorax -0.00568934 -0.330803 -2.02824
lowerneck -3.86079 -12.2779 -12.958
upperneck 13.2724 -18.5492 17.6665
head 7.60967 -8.68573 6.04083
rclavicle -1.32192e-014 -2.70347e-014
rhumerus -36.9042 -13.0727 -87.1611
rradius 27.1141
rwrist 20.7397
rhand -22.0696 21.2919
rfingers 7.12502
rthumb 4.34158 -8.6436
lclavicle -1.32192e-014 -2.70347e-014
lhumerus -49.3397 32.0225 50.0264
lradius 15.5509
lwrist -40.2877
lhand -7.00736 31.8906
lfingers 7.12502
lthumb 18.8637 60.9959
rfemur -1.21171 12.7461 15.0044
rtibia 43.2506
rfoot 26.5661 14.6443
rtoes -7.17653
lfemur -17.3524 6.55176 -26.3782
ltibia 17.5542
lfoot -5.46866 -1.6302
ltoes 9.62047
56
root 20.5716 18.8523 8.33407 1.7774 -23.048 4.71718
lowerback -0.346128 -0.54672 -6.84369
upperback -0.356854 -0.761679 -5.45654
thorax -0.162145 -0.38976 -1.7932
lowerneck -3.99089 -12.2331 -12.8869
upperneck 13.1705 -18.4546 17.6334
head 7.57386 -8.6346 6.02493
rclavicle 6.7388e-014 1.59028e-015
rhumerus -37.8391 -14.9656 -85.7793
rradius 25.3847
rwrist 23.0517
rhand -21.6171 21.6653
rfingers 7.12502
rthumb 4.77849 -8.26079
lclavicle 6.7388e-014 1.59028e-015
lhumerus -48.584 31.2403 51.0743
lradius 15.7783
lwrist -39.5676
lhand -6.97414 31.8608
lfingers 7.12502
lthumb 18.8957 60.963
rfemur -2.72586 12.6505 13.6349
rtibia 45.8803
rfoot 27.2371 15.1061
rtoes -9.05706
lfemur -16.322 6.70503 -27.7093
ltibia 16.9386
lfoot -5.58651 -2.39215
ltoes 12.0594
57
root 20.5727 18.8443 8.47961 1.52472 -22.6934 5.36364
lowerback -0.224868 -0.639023 -7.36637
upperback -0.237258 -0.889506 -5.61872
thorax -0.0995162 -0.456587 -1.67286
lowerneck -4.4908 -12.2985 -12.7616
upperneck 13.2019 -18.4688 17.4152
head 7.64079 -8.61612 5.89892
rclavicle 1.05356e-014 3.33958e-014
rhumerus -38.4184 -17.2361 -84.1468
rradius 23.5856
rwrist 26.0225
rhand -21.2121 21.3011
rfingers 7.12502
rthumb 5.16957 -8.6158
lclavicle 1.05356e-014 3.33958e-014
lhumerus -47.345 30.5425 52.4789
lradius 15.8412
lwrist -39.014
lhand -8.97872 31.08
lfingers 7.12502
lthumb 16.9669 60.3589
rfemur -4.32448 12.5078 12.8554
rtibia 48.4674
rfoot 28.0544 12.8736
rtoes -5.21401
lfemur -15.4466 6.83068 -28.5282
ltibia 16.2628
lfoot -5.61666 -3.12344
ltoes 14.1463
58
root 20.5758 18.8388 8.62803 1.32702 -22.3134 5.606
lowerback -0.053843 -0.732511 -7.49579
upperback -0.0836891 -1.02012 -5.65502
thorax -0.0319024 -0.525254 -1.63852
lowerneck -4.56964 -12.2893 -12.7319
upperneck 12.8857 -18.384 17.3717
head 7.53165 -8.58065 5.88735
rclavicle -2.24627e-014 4.92986e-014
rhumerus -38.9601 -19.7747 -82.1494
rradius 21.7347
rwrist 29.8968
rhand -19.8654 20.706
rfingers 7.12502
rthumb 6.46976 -9.17522
lclavicle -2.24627e-014 4.92986e-014
lhumerus -46.3069 30.1099 53.7336
lradius 16.0232
lwrist -38.7862
lhand -9.80435 30.6487
lfingers 7.12502
lthumb 16.1721 59.9941
rfemur -5.77805 12.216 12.4513
rtibia 50.8885
rfoot 27.4498 11.6855
rtoes -5.15072
lfemur -14.6104 6.96062 -28.9363
ltibia 15.8265
lfoot -5.86067 -3.80705
ltoes 16.1681
59
root 20.5751 18.8374 8.77227 1.17496 -21.8027 5.91105
lowerback 0.275705 -0.920342 -7.77864
upperback -0.102149 -1.31231 -5.67078
thorax -0.223159 -0.665721 -1.4935
lowerneck -4.21089 -12.2237 -12.9094
upperneck 12.4271 -18.285 17.6492
head 7.35077 -8.56083 6.04318
rclavicle -5.48646e-014 -7.95139e-015
rhumerus -39.9601 -22.6126 -79.5957
rradius 19.9073
rwrist 34.4821
rhand -17.9281 20.4947
rfingers 7.12502
rthumb 8.33971 -9.32063
lclavicle -5.48646e-014 -7.95139e-015
lhumerus -45.3625 29.234 55.1061
lradius 16.1663
lwrist -37.9974
lhand -10.1032 30.9506
lfingers 7.12502
lthumb 15.8842 60.3191
rfemur -7.20396 11.6849 11.9632
rtibia 53.1133
rfoot 25.8679 12.4521
rtoes -12.4939
lfemur -14.0229 6.92466 -29.3747
ltibia 15.7956
lfoot -6.16134 -4.51989
ltoes 18.1949
60
root 20.5722 18.8386 8.92 1.22136 -21.1853 5.92886
lowerback 0.452626 -1.13174 -7.7943
upperback -0.0713755 -1.61035 -5.58956
thorax -0.278711 -0.812443 -1.39656
lowerneck -4.45978 -12.3229 -13.0908
upperneck 12.5093 -18.4092 17.7086
head 7.46642 -8.60684 6.05473
rclavicle 8.63719e-014 1.11319e-014
rhumerus -41.1501 -26.0093 -76.4159
rradius 18.0166
rwrist 39.3851
rhand -16.489 20.5197
rfingers 7.12502
rthumb 9.72843 -9.23566
lclavicle 8.63719e-014 1.11319e-014
lhumerus -44.2816 28.6483 56.2959
lradius 16.079
lwrist -37.6178
lhand -10.7111 30.4474
lfingers 7.12502
lthumb 15.2988 59.8615
rfemur -8.60154 11.0397 11.781
rtibia 55.1264
rfoot 24.2202 12.1011
rtoes -17.2189
lfemur -13.6152 7.22655 -29.6277
ltibia 15.9507
lfoot -6.47997 -5.39923
ltoes 16.5311
61
root 20.5711 18.8322 9.07529 1.11416 -20.5523 5.91706
lowerback 0.628952 -1.30412 -7.76385
upperback 0.100447 -1.84237 -5.48191
thorax -0.18931 -0.931905 -1.29908
lowerneck -4.76358 -12.4301 -13.1615
upperneck 12.4807 -18.4911 17.5859
head 7.51919 -8.63697 5.99185
rclavicle 5.75482e-014 3.33958e-014
rhumerus -42.5389 -29.1992 -73.0155
rradius 16.5547
rwrist 44.1056
rhand -15.1795 20.2631
rfingers 7.12502
rthumb 10.9916 -9.42916
lclavicle 5.75482e-014 3.33958e-014
lhumerus -43.2336 28.4199 57.4593
lradius 16.2612
lwrist -37.1069
lhand -10.6391 29.8588
lfingers 7.12502
lthumb 15.3681 59.2676
rfemur -9.75361 10.4821 11.679
rtibia 56.9851
rfoot 22.214 10.5639
rtoes -15.9054
lfemur -13.0875 7.63119 -29.8938
ltibia 16.171
lfoot -6.93554 -6.259
ltoes 13.9796
62
root 20.5643 18.8233 9.22604 0.983568 -19.9681 5.89832
lowerback 0.816226 -1.46839 -7.8093
upperback 0.260294 -2.06735 -5.40867
thorax -0.116767 -1.04756 -1.1949
lowerneck -4.40311 -12.4052 -12.9849
upperneck 11.723 -18.3867 17.6362
head 7.1838 -8.62006 6.02115
rclavicle 7.55382e-015 -2.22639e-014
rhumerus -44.4008 -32.1009 -69.5839
rradius 15.6419
rwrist 48.767
rhand -13.7672 19.9356
rfingers 7.12502
rthumb 12.3536 -9.67938
lclavicle 7.55382e-015 -2.22639e-014
lhumerus -42.1006 27.6764 58.9509
lradius 16.7867
lwrist -35.7081
lhand -10.2058 30.2612
lfingers 7.12502
lthumb 15.7855 59.6376
rfemur -10.8699 10.0975 11.685
rtibia 58.7381
rfoot 20.1458 8.80189
rtoes -12.4373
lfemur -12.5865 7.36511 -29.9844
ltibia 16.544
lfoot -7.37131 -6.68089
ltoes 15.1628
63
root 20.5605 18.8245 9.371 1.07559 -19.2493 5.6802
lowerback 1.00085 -1.63187 -7.61648
upperback 0.301479 -2.29898 -5.3135
thorax -0.172954 -1.16129 -1.19602
lowerneck -3.99292 -12.4054 -12.8194
upperneck 11.1995 -18.3632 17.6965
head 6.93192 -8.63849 6.04722
rclavicle -4.77083e-015 0
rhumerus -46.9995 -35.3036 -65.3317
rradius 14.7349
rwrist 53.8315
rhand -12.6567 19.8961
rfingers 7.12502
rthumb 13.4241 -9.65137
lclavicle -4.77083e-015 0
lhumerus -40.964 26.7944 60.3347
lradius 17.1564
lwrist -35.2818
lhand -10.2564 30.9626
lfingers 7.12502
lthumb 15.7367 60.3428
rfemur -12.0788 9.50229 11.8693
rtibia 60.3379
rfoot 17.7369 7.73269
rtoes -13.9365
lfemur -12.2038 6.81427 -29.8305
ltibia 16.8596
lfoot -7.69971 -7.07093
ltoes 17.0597
